<?xml version="1.0" encoding="UTF-8" standalone="no"?>
<!DOCTYPE svg PUBLIC "-//W3C//DTD SVG 1.1//EN" "http://www.w3.org/Graphics/SVG/1.1/DTD/svg11.dtd">
<svg width="100%" height="100%" viewBox="0 0 200 230" version="1.1" xmlns="http://www.w3.org/2000/svg" xmlns:xlink="http://www.w3.org/1999/xlink" xml:space="preserve" xmlns:serif="http://www.serif.com/" style="fill-rule:evenodd;clip-rule:evenodd;stroke-linejoin:round;stroke-miterlimit:2;">
    <g transform="matrix(1,0,0,1,-243,0)">
        <path style="fill:rgb(21,101,192);" d="M273,100L273,60C273,26.885 309.885,0 343,0C376.115,0 413,26.885 413,60L413,100L431.525,100C437.858,100 443,105.142 443,111.475L443,196.586L408.023,169.921C411.268,162.795 413.077,154.876 413.077,146.538C413.077,127.251 403.398,110.206 388.635,100L324.441,100C309.679,110.206 300,127.251 300,146.538C300,177.743 325.334,203.077 356.538,203.077C370.793,203.077 383.822,197.791 393.773,189.071L440.964,225.048C438.892,228.039 435.436,230 431.525,230L254.475,230C248.142,230 243,224.858 243,218.525L243,111.475C243,105.142 248.142,100 254.475,100L273,100ZM356.538,108.462C377.554,108.462 394.615,125.523 394.615,146.538C394.615,167.554 377.554,184.615 356.538,184.615C335.523,184.615 318.462,167.554 318.462,146.538C318.462,125.523 335.523,108.462 356.538,108.462ZM393,100L393,60C393,38.475 364.525,20 343,20C321.475,20 293,38.475 293,60L293,100L393,100Z"/>
    </g>
</svg>
